<svg width="24" height="24" viewBox="0 0 24 24" fill="none" xmlns="http://www.w3.org/2000/svg">
<path fill-rule="evenodd" clip-rule="evenodd" d="M8.46967 5.46973C8.17678 5.76262 8.17678 6.2375 8.46967 6.53039C8.76256 6.82328 9.23744 6.82328 9.53033 6.53039L11.25 4.81072L11.25 15.0001C11.25 15.4143 11.5858 15.7501 12 15.7501C12.4142 15.7501 12.75 15.4143 12.75 15.0001L12.75 4.81072L14.4697 6.53039C14.7626 6.82328 15.2374 6.82328 15.5303 6.53039C15.8232 6.2375 15.8232 5.76262 15.5303 5.46973L12.5303 2.46973C12.2374 2.17684 11.7626 2.17684 11.4697 2.46973L8.46967 5.46973ZM2.25 17.0001C2.25 19.6234 4.37665 21.7501 7 21.7501L17 21.7501C19.6234 21.7501 21.75 19.6234 21.75 17.0001L21.75 13.0001C21.75 10.3767 19.6234 8.25006 17 8.25006H16.5C16.0858 8.25006 15.75 8.58585 15.75 9.00006C15.75 9.41427 16.0858 9.75006 16.5 9.75006H17C18.7949 9.75006 20.25 11.2051 20.25 13.0001L20.25 17.0001C20.25 18.795 18.7949 20.2501 17 20.2501L7 20.2501C5.20507 20.2501 3.75 18.795 3.75 17.0001L3.75 13.0001C3.75 11.2051 5.20507 9.75006 7 9.75006H7.5C7.91421 9.75006 8.25 9.41427 8.25 9.00006C8.25 8.58585 7.91421 8.25006 7.5 8.25006H7C4.37665 8.25006 2.25 10.3767 2.25 13.0001L2.25 17.0001Z" fill="#4253F2"/>
</svg>
