<svg width="24" height="24" viewBox="0 0 24 24" fill="none" xmlns="http://www.w3.org/2000/svg">
<path d="M2.5 6H21.5M22 6.96126V18C22 20.2092 20.2091 22 18 22H6C3.79086 22 2 20.2092 2 18V6.96126C2 6.35369 2.27618 5.77907 2.75061 5.39953L5.90434 2.87653C6.6136 2.30912 7.49484 2 8.40313 2L15.5969 2.00001C16.5052 2.00001 17.3864 2.30914 18.0957 2.87654L21.2494 5.39953C21.7238 5.77907 22 6.3537 22 6.96126ZM9 6H15V9C15 10.6569 13.6569 12 12 12C10.3431 12 9 10.6569 9 9V6Z" stroke="#4253F2" stroke-width="1.5" stroke-linecap="round" stroke-linejoin="round"/>
</svg>
