<svg width="24" height="24" viewBox="0 0 24 24" fill="none" xmlns="http://www.w3.org/2000/svg">
<path opacity="0.4" d="M7.375 9.375L17.375 9.375C19.5841 9.375 21.375 11.1659 21.375 13.375L21.375 17.375C21.375 19.5841 19.5841 21.375 17.375 21.375L7.375 21.375C5.16586 21.375 3.375 19.5841 3.375 17.375L3.375 13.375C3.375 11.1659 5.16586 9.375 7.375 9.375Z" fill="#4253F2"/>
<path fill-rule="evenodd" clip-rule="evenodd" d="M8.84467 6.90533C8.55178 6.61244 8.55178 6.13756 8.84467 5.84467L11.8447 2.84467C12.1376 2.55178 12.6124 2.55178 12.9053 2.84467L15.9053 5.84467C16.1982 6.13756 16.1982 6.61244 15.9053 6.90533C15.6124 7.19822 15.1376 7.19822 14.8447 6.90533L13.125 5.18566L13.125 15.375C13.125 15.7892 12.7892 16.125 12.375 16.125C11.9608 16.125 11.625 15.7892 11.625 15.375L11.625 5.18566L9.90533 6.90533C9.61244 7.19822 9.13756 7.19822 8.84467 6.90533Z" fill="#4253F2"/>
</svg>
