<svg width="24" height="24" viewBox="0 0 24 24" fill="none" xmlns="http://www.w3.org/2000/svg">
<path opacity="0.4" d="M22 18V6.96126C22 6.3537 21.7238 5.77907 21.2494 5.39953L18.0957 2.87654C17.3864 2.30914 16.5052 2.00001 15.5969 2.00001L8.40313 2C7.49484 2 6.6136 2.30912 5.90434 2.87653L2.75061 5.39953C2.27618 5.77907 2 6.35369 2 6.96126V18C2 20.2092 3.79086 22 6 22H18C20.2091 22 22 20.2092 22 18Z" fill="#4253F2"/>
<path d="M9 6H15V12L12 10L9 12V6Z" fill="#4253F2"/>
<path d="M15.5968 2.00001L8.40307 2C7.49478 2 6.61354 2.30912 5.90428 2.87653L2.75055 5.39953C2.54181 5.56652 2.37144 5.77128 2.24609 6H21.7538C21.6284 5.77128 21.4581 5.56652 21.2493 5.39953L18.0956 2.87654C17.3863 2.30914 16.5051 2.00001 15.5968 2.00001Z" fill="#4253F2"/>
</svg>
