<svg width="24" height="24" viewBox="0 0 24 24" fill="none" xmlns="http://www.w3.org/2000/svg">
<path opacity="0.4" d="M16.2425 3.81627C17.3308 2.72791 19.0954 2.72791 20.1837 3.81626C21.2721 4.90462 21.2721 6.66918 20.1837 7.75754L8.72824 19.213C8.16769 19.7736 7.45153 20.1526 6.67278 20.3008L3.72215 20.8625C3.37556 20.9285 3.07149 20.6244 3.13747 20.2778L3.69916 17.3272C3.8474 16.5485 4.22642 15.8323 4.78696 15.2718L16.2425 3.81627Z" fill="#4253F2"/>
<path d="M20.1837 7.75754C21.2721 6.66918 21.2721 4.90462 20.1837 3.81626C19.0954 2.72791 17.3308 2.72791 16.2425 3.81627L14.3865 5.83114L18.169 9.61364L20.1837 7.75754Z" fill="#4253F2"/>
</svg>
