<svg width="24" height="24" viewBox="0 0 24 24" fill="none" xmlns="http://www.w3.org/2000/svg">
<path opacity="0.4" d="M7.375 9.375L17.375 9.375C19.5841 9.375 21.375 11.1659 21.375 13.375L21.375 17.375C21.375 19.5841 19.5841 21.375 17.375 21.375L7.375 21.375C5.16586 21.375 3.375 19.5841 3.375 17.375L3.375 13.375C3.375 11.1659 5.16586 9.375 7.375 9.375Z" fill="#4253F2"/>
<path fill-rule="evenodd" clip-rule="evenodd" d="M8.84467 11.8447C8.55178 12.1376 8.55178 12.6124 8.84467 12.9053L11.8447 15.9053C12.1376 16.1982 12.6124 16.1982 12.9053 15.9053L15.9053 12.9053C16.1982 12.6124 16.1982 12.1376 15.9053 11.8447C15.6124 11.5518 15.1376 11.5518 14.8447 11.8447L13.125 13.5643L13.125 3.375C13.125 2.96079 12.7892 2.625 12.375 2.625C11.9608 2.625 11.625 2.96079 11.625 3.375L11.625 13.5643L9.90533 11.8447C9.61244 11.5518 9.13756 11.5518 8.84467 11.8447Z" fill="#4253F2"/>
</svg>
